# xmcd
#
# Track frame offsets:
#	150
#	20196
#	39916
#	53586
#	70385
#	83506
#	93025
#	114685
#	128629
#	141295
#	161942
#	180506
#	195832
#	210731
#	229254
#	241699
#
# Disc length: 3414 seconds
#
# Revision: 1
# Processed by: cddbd v1.5.1PL0 Copyright (c) Steve Scherf et al.
# Submitted via: EasyCDDAExtractor 5.1.0
#
DISCID=ce0d5410
DTITLE=Various Artist - compil
DYEAR=1900
DGENRE=Country
TTITLE0=Track12
TTITLE1=Track09
TTITLE2=Rose Garden
TTITLE3=Track10
TTITLE4=Cotton fields (1)
TTITLE5=Track20
TTITLE6=Track15
TTITLE7=KISS ME HONEY HONEY
TTITLE8=Track06
TTITLE9=Track03
TTITLE10=God Blessed Texas
TTITLE11=Track11
TTITLE12=Track02
TTITLE13=Addicted To Love
TTITLE14=country - just a minute
TTITLE15=Land Of Enchantment
EXTD=
EXTT0=
EXTT1=
EXTT2=
EXTT3=
EXTT4=
EXTT5=
EXTT6=
EXTT7=
EXTT8=
EXTT9=
EXTT10=
EXTT11=
EXTT12=
EXTT13=
EXTT14=
EXTT15=
PLAYORDER=
